<svg xmlns="http://www.w3.org/2000/svg" width="127.826" height="43.243" viewBox="0 0 127.826 43.243"><defs><style>.a{fill:#32305d;}.b{fill:#ffba00;}.c{fill:#ff9400;}.d{fill:#ff7100;}</style></defs><g transform="translate(0.005 0.005)"><g transform="translate(-0.005 -0.005)"><g transform="translate(0 0)"><path class="a" d="M58.271,48.356,52.593,25.588a3.911,3.911,0,0,0-4.74-2.85l-11.382,2.85a3.871,3.871,0,0,0-1.747.959,3.911,3.911,0,0,0-1.077,1.786,3.976,3.976,0,0,0-.141.949,3.884,3.884,0,0,0,.115,1.043l7.3,29.246a.521.521,0,0,0,.933.172L44.618,55.8l10.811-2.7a3.911,3.911,0,0,0,2.842-4.747Zm-5.949-.7c0,2.558-1.377,3.8-4.205,3.8H43.76a5.861,5.861,0,0,1-2.273-.388.443.443,0,0,1-.261-.3l-1.637-6.429h4.263l.923,3.626a.425.425,0,0,0,.412.323h1.52a1.5,1.5,0,0,0,1.019-.261,1.336,1.336,0,0,0,.305-1.014V41.564a1.325,1.325,0,0,0-.305-1.012,1.456,1.456,0,0,0-1.019-.274H43.437c-2.664,0-3.96-1.257-3.96-3.84V30.182c0-2.555,1.361-3.8,4.171-3.8H48.08a5.816,5.816,0,0,1,2.2.368.422.422,0,0,1,.261.287l1.444,5.85h-4.27l-.7-2.805a.709.709,0,0,0-.686-.537H45.105a1.626,1.626,0,0,0-1.061.261,1.326,1.326,0,0,0-.305,1.012v5.136a1.325,1.325,0,0,0,.305,1.012,1.56,1.56,0,0,0,1.061.261h3.173c2.722,0,4.044,1.231,4.044,3.759Z" transform="translate(-24.769 -16.723)"/><path class="b" d="M0,0H6.257V2.086H0Z" transform="translate(0 14.727) rotate(-14)"/><path class="c" d="M0,0H6.257V2.086H0Z" transform="matrix(0.857, 0.515, -0.515, 0.857, 2.236, 5.178)"/><path class="d" d="M0,0H6.257V2.086H0Z" transform="translate(10.571) rotate(76)"/><path class="a" d="M4.325,117.61v1.541H3.259c-.18,0-.261.094-.261.279v.438c0,.193.089.289.261.289H7.43a.261.261,0,0,0,.209-.065.331.331,0,0,0,.057-.224v-.438a.308.308,0,0,0-.057-.214.261.261,0,0,0-.209-.065H6.388V117.61H7.566q1.176,0,1.178,1.358v1.371q0,1.348-1.178,1.348H3.116q-1.178,0-1.176-1.348v-1.371q0-1.356,1.176-1.358Z" transform="translate(-1.433 -86.947)"/><path class="a" d="M1.94,101.982V99.148q0-1.356,1.176-1.358h1.2c.521,0,.86.162,1,.482.12-.321.428-.482.92-.482H7.558q1.189,0,1.189,1.358v2.826Zm2.589-2.675H3.259c-.18,0-.261.1-.261.289v.876H4.8V99.6c0-.188-.091-.289-.269-.289Zm2.9,0H6.1a.261.261,0,0,0-.2.063.342.342,0,0,0-.06.227v.876H7.691V99.6Q7.691,99.307,7.43,99.307Z" transform="translate(-1.433 -72.294)"/><path class="a" d="M7.355,80.211H6.127a.261.261,0,0,0-.2.065.331.331,0,0,0-.06.224v.941q0,1.262-1.2,1.264H3.116q-1.178,0-1.176-1.35v-1.3c0-.9.391-1.348,1.176-1.348H4v1.53H3.33q-.261,0-.261.289v.365c0,.193.089.287.261.287h1.2a.261.261,0,0,0,.2-.063.334.334,0,0,0,.06-.224v-.923a1.374,1.374,0,0,1,.3-.985,1.171,1.171,0,0,1,.873-.3H7.563q1.189,0,1.189,1.348v1.3c0,.907-.4,1.358-1.189,1.358H6.68V81.152h.675q.261,0,.261-.289V80.5q.005-.289-.261-.289Z" transform="translate(-1.433 -58.164)"/><path class="a" d="M131.319,71.1h2.453V68.052h-1.2a1.478,1.478,0,0,1-1-.261,1.27,1.27,0,0,1-.289-.957V55.854h2.534V52.913h-2.534V49.19h-3.887v3.723H124.4l.782,2.941h2.2v11.7C127.388,69.942,128.673,71.1,131.319,71.1Z" transform="translate(-91.967 -36.365)"/><path class="a" d="M183.428,81.662V63.47h-3.911V77.287a1.26,1.26,0,0,1-1.369,1.447h-1.137a1.405,1.405,0,0,1-.965-.261,1.257,1.257,0,0,1-.289-.957V63.47h-3.9V78.111c0,2.388,1.2,3.551,3.666,3.551H176.7a2.48,2.48,0,0,0,2.213-1c.154-.219.67-.873.67-.873v1.872Z" transform="translate(-127.054 -46.922)"/><path class="a" d="M243.127,62.137V37.06h-3.911v9.37l-.381-1.064a2.261,2.261,0,0,0-2.427-1.46h-1.173c-2.466,0-3.666,1.16-3.666,3.551V58.584c0,2.388,1.2,3.551,3.666,3.551h1.173a2.487,2.487,0,0,0,2.177-.944c.185-.261.707-.9.707-.9v1.843Zm-3.911-4.385a1.26,1.26,0,0,1-1.369,1.447h-1.137a1.405,1.405,0,0,1-.965-.261,1.257,1.257,0,0,1-.289-.957V48.075a1.249,1.249,0,0,1,.289-.957,1.405,1.405,0,0,1,.965-.261h1.137a1.39,1.39,0,0,1,1.043.347,1.632,1.632,0,0,1,.318,1.137Z" transform="translate(-171.197 -27.397)"/><path class="a" d="M303.311,73.6V67.023c0-2.391-1.272-3.553-3.89-3.553h-4.012c-2.644,0-3.929,1.163-3.929,3.553V78.111c0,2.388,1.285,3.551,3.929,3.551h3.937c2.644,0,3.929-1.163,3.929-3.551v-1.7H299.5v1.2a1.246,1.246,0,0,1-.289.957,1.405,1.405,0,0,1-.965.261h-1.741a1.412,1.412,0,0,1-.991-.261,1.32,1.32,0,0,1-.261-.952V73.6Zm-8.061-6.124a1.256,1.256,0,0,1,.292-.959,1.405,1.405,0,0,1,.965-.261h1.825a1.416,1.416,0,0,1,.965.261,1.26,1.26,0,0,1,.289.959v3.752h-4.328Z" transform="translate(-215.488 -46.922)"/><path class="a" d="M356.826,66.381h1.134a1.405,1.405,0,0,1,.965.261,1.264,1.264,0,0,1,.292.959V81.635h3.911V66.994c0-2.391-1.21-3.553-3.7-3.553h-1.134a2.51,2.51,0,0,0-2.148.858c-.151.2-.735.957-.735.957V63.43H351.57V81.622h3.887V67.8A1.251,1.251,0,0,1,356.826,66.381Z" transform="translate(-259.912 -46.892)"/><path class="a" d="M412.225,71.1h2.443V68.052h-1.2a1.478,1.478,0,0,1-1-.261,1.266,1.266,0,0,1-.289-.957V55.854h2.581l.782-2.941h-3.353V49.19H408.3v3.723H406.44v2.941H408.3v11.7C408.3,69.942,409.582,71.1,412.225,71.1Z" transform="translate(-300.477 -36.365)"/><path class="a" d="M452.107,81.662h3.066c2.644,0,3.929-1.163,3.929-3.551V74.819c0-2.365-1.275-3.514-3.892-3.514h-2.044a1.452,1.452,0,0,1-1-.261,1.288,1.288,0,0,1-.292-.959V67.362a1.249,1.249,0,0,1,.292-.957,1.488,1.488,0,0,1,1-.261h.756a1.405,1.405,0,0,1,.965.261,1.253,1.253,0,0,1,.292.957v1.2h3.733V67.023c0-2.391-1.272-3.553-3.892-3.553h-2.988a4.58,4.58,0,0,0-2.737.707l-1.194,4.68V70.42c0,2.365,1.262,3.514,3.856,3.514H454a1.464,1.464,0,0,1,1,.261,1.277,1.277,0,0,1,.289.959v2.607a1.256,1.256,0,0,1-.289.959,1.478,1.478,0,0,1-1,.261h-.756a1.405,1.405,0,0,1-.965-.261,1.249,1.249,0,0,1-.289-.957V76.6h-3.812v1.507C448.176,80.5,449.461,81.662,452.107,81.662Z" transform="translate(-331.276 -46.922)"/></g></g></g></svg>